<mxfile host="app.diagrams.net" agent="Mozilla/5.0 (Windows NT 10.0; Win64; x64) AppleWebKit/537.36 (KHTML, like Gecko) Chrome/131.0.0.0 Safari/537.36" version="24.8.6">
  <diagram name="ページ1" id="Yg4KMLySHaOy_Sq2R1wh">
    <mxGraphModel dx="1290" dy="530" grid="1" gridSize="10" guides="1" tooltips="1" connect="1" arrows="1" fold="1" page="1" pageScale="1" pageWidth="827" pageHeight="1169" math="0" shadow="0">
      <root>
        <mxCell id="0" />
        <mxCell id="1" parent="0" />
        <mxCell id="RgILxQGv2llNLQemSSn4-1" value="2.以下の要件を満たすための処理の流れをフローチャートで作成&#xa;する&#xa;○同期生＋先輩期から、翌日の当番をランダムに出力する&#xa;○同じ人ばかりが選ばれないようにする&#xa;○余裕があれば、独自の要件を考えてチャレンジ" style="text;whiteSpace=wrap;html=1;" vertex="1" parent="1">
          <mxGeometry x="60" y="10" width="380" height="100" as="geometry" />
        </mxCell>
        <mxCell id="RgILxQGv2llNLQemSSn4-2" value="処理" style="rounded=0;whiteSpace=wrap;html=1;" vertex="1" parent="1">
          <mxGeometry x="440" y="20" width="120" height="40" as="geometry" />
        </mxCell>
        <mxCell id="RgILxQGv2llNLQemSSn4-3" value="分岐条件" style="rhombus;whiteSpace=wrap;html=1;" vertex="1" parent="1">
          <mxGeometry x="710" width="80" height="80" as="geometry" />
        </mxCell>
        <mxCell id="RgILxQGv2llNLQemSSn4-4" value="開始・終了" style="rounded=1;whiteSpace=wrap;html=1;" vertex="1" parent="1">
          <mxGeometry x="580" y="20" width="100" height="40" as="geometry" />
        </mxCell>
        <mxCell id="RgILxQGv2llNLQemSSn4-6" value="データ" style="shape=parallelogram;perimeter=parallelogramPerimeter;whiteSpace=wrap;html=1;fixedSize=1;" vertex="1" parent="1">
          <mxGeometry x="690" y="100" width="100" height="40" as="geometry" />
        </mxCell>
        <mxCell id="RgILxQGv2llNLQemSSn4-7" value="ループstart" style="shape=loopLimit;whiteSpace=wrap;html=1;" vertex="1" parent="1">
          <mxGeometry x="590" y="80" width="90" height="60" as="geometry" />
        </mxCell>
        <mxCell id="RgILxQGv2llNLQemSSn4-8" value="ループend" style="shape=loopLimit;whiteSpace=wrap;html=1;direction=west;" vertex="1" parent="1">
          <mxGeometry x="460" y="80" width="90" height="60" as="geometry" />
        </mxCell>
        <mxCell id="RgILxQGv2llNLQemSSn4-10" style="edgeStyle=orthogonalEdgeStyle;rounded=0;orthogonalLoop=1;jettySize=auto;html=1;exitX=0.5;exitY=0;exitDx=0;exitDy=0;" edge="1" parent="1" source="RgILxQGv2llNLQemSSn4-8" target="RgILxQGv2llNLQemSSn4-8">
          <mxGeometry relative="1" as="geometry" />
        </mxCell>
        <mxCell id="RgILxQGv2llNLQemSSn4-20" value="" style="edgeStyle=orthogonalEdgeStyle;rounded=0;orthogonalLoop=1;jettySize=auto;html=1;entryX=0.5;entryY=0;entryDx=0;entryDy=0;" edge="1" parent="1" source="RgILxQGv2llNLQemSSn4-11" target="RgILxQGv2llNLQemSSn4-21">
          <mxGeometry relative="1" as="geometry">
            <mxPoint x="230" y="245" as="targetPoint" />
          </mxGeometry>
        </mxCell>
        <mxCell id="RgILxQGv2llNLQemSSn4-11" value="開始" style="rounded=1;whiteSpace=wrap;html=1;" vertex="1" parent="1">
          <mxGeometry x="170" y="150" width="120" height="30" as="geometry" />
        </mxCell>
        <mxCell id="RgILxQGv2llNLQemSSn4-16" value="&lt;div&gt;・HTMLファイルを作成&lt;/div&gt;&lt;div&gt;・JavaScriptファイルを作成&lt;/div&gt;・不在者を除いてルーレット&lt;div&gt;・ランダムに当番を決める&lt;/div&gt;&lt;div&gt;・選んだ番号から名前を表示する&lt;/div&gt;" style="text;html=1;align=left;verticalAlign=middle;resizable=0;points=[];autosize=1;strokeColor=none;fillColor=none;" vertex="1" parent="1">
          <mxGeometry x="535" y="195" width="200" height="90" as="geometry" />
        </mxCell>
        <mxCell id="RgILxQGv2llNLQemSSn4-23" value="" style="edgeStyle=orthogonalEdgeStyle;rounded=0;orthogonalLoop=1;jettySize=auto;html=1;" edge="1" parent="1" source="RgILxQGv2llNLQemSSn4-21" target="RgILxQGv2llNLQemSSn4-22">
          <mxGeometry relative="1" as="geometry" />
        </mxCell>
        <mxCell id="RgILxQGv2llNLQemSSn4-21" value="HTMLファイルを開いたらブラウザが開く" style="rounded=0;whiteSpace=wrap;html=1;" vertex="1" parent="1">
          <mxGeometry x="170" y="210" width="120" height="60" as="geometry" />
        </mxCell>
        <mxCell id="RgILxQGv2llNLQemSSn4-25" value="" style="edgeStyle=orthogonalEdgeStyle;rounded=0;orthogonalLoop=1;jettySize=auto;html=1;" edge="1" parent="1" source="RgILxQGv2llNLQemSSn4-22" target="RgILxQGv2llNLQemSSn4-24">
          <mxGeometry relative="1" as="geometry" />
        </mxCell>
        <mxCell id="RgILxQGv2llNLQemSSn4-42" value="" style="edgeStyle=orthogonalEdgeStyle;rounded=0;orthogonalLoop=1;jettySize=auto;html=1;entryX=1;entryY=0.5;entryDx=0;entryDy=0;" edge="1" parent="1" source="RgILxQGv2llNLQemSSn4-22" target="RgILxQGv2llNLQemSSn4-26">
          <mxGeometry relative="1" as="geometry">
            <mxPoint x="360" y="470" as="targetPoint" />
            <Array as="points">
              <mxPoint x="361" y="315" />
              <mxPoint x="361" y="460" />
            </Array>
          </mxGeometry>
        </mxCell>
        <mxCell id="RgILxQGv2llNLQemSSn4-22" value="不在者がいるか？" style="rhombus;whiteSpace=wrap;html=1;rounded=0;" vertex="1" parent="1">
          <mxGeometry x="140" y="290" width="180" height="50" as="geometry" />
        </mxCell>
        <mxCell id="RgILxQGv2llNLQemSSn4-40" value="" style="edgeStyle=orthogonalEdgeStyle;rounded=0;orthogonalLoop=1;jettySize=auto;html=1;entryX=0;entryY=0.5;entryDx=0;entryDy=0;" edge="1" parent="1" source="RgILxQGv2llNLQemSSn4-24" target="RgILxQGv2llNLQemSSn4-22">
          <mxGeometry relative="1" as="geometry">
            <mxPoint x="90" y="310" as="targetPoint" />
            <Array as="points">
              <mxPoint x="91" y="395" />
              <mxPoint x="91" y="315" />
            </Array>
          </mxGeometry>
        </mxCell>
        <mxCell id="RgILxQGv2llNLQemSSn4-24" value="不在者を選択or除外" style="whiteSpace=wrap;html=1;rounded=0;" vertex="1" parent="1">
          <mxGeometry x="170" y="380" width="120" height="30" as="geometry" />
        </mxCell>
        <mxCell id="RgILxQGv2llNLQemSSn4-29" value="" style="edgeStyle=orthogonalEdgeStyle;rounded=0;orthogonalLoop=1;jettySize=auto;html=1;" edge="1" parent="1" source="RgILxQGv2llNLQemSSn4-26" target="RgILxQGv2llNLQemSSn4-28">
          <mxGeometry relative="1" as="geometry" />
        </mxCell>
        <mxCell id="RgILxQGv2llNLQemSSn4-26" value="ルーレット開始" style="whiteSpace=wrap;html=1;rounded=0;" vertex="1" parent="1">
          <mxGeometry x="170" y="440" width="120" height="40" as="geometry" />
        </mxCell>
        <mxCell id="RgILxQGv2llNLQemSSn4-33" value="" style="edgeStyle=orthogonalEdgeStyle;rounded=0;orthogonalLoop=1;jettySize=auto;html=1;" edge="1" parent="1" source="RgILxQGv2llNLQemSSn4-28" target="RgILxQGv2llNLQemSSn4-32">
          <mxGeometry relative="1" as="geometry" />
        </mxCell>
        <mxCell id="RgILxQGv2llNLQemSSn4-28" value="名前が表示される" style="rounded=0;whiteSpace=wrap;html=1;" vertex="1" parent="1">
          <mxGeometry x="170" y="510" width="120" height="40" as="geometry" />
        </mxCell>
        <mxCell id="RgILxQGv2llNLQemSSn4-32" value="終了" style="rounded=1;whiteSpace=wrap;html=1;" vertex="1" parent="1">
          <mxGeometry x="170" y="570" width="120" height="30" as="geometry" />
        </mxCell>
        <mxCell id="RgILxQGv2llNLQemSSn4-34" value="いる" style="text;html=1;align=center;verticalAlign=middle;whiteSpace=wrap;rounded=0;" vertex="1" parent="1">
          <mxGeometry x="160" y="340" width="60" height="30" as="geometry" />
        </mxCell>
        <mxCell id="RgILxQGv2llNLQemSSn4-36" value="いない" style="text;html=1;align=center;verticalAlign=middle;whiteSpace=wrap;rounded=0;" vertex="1" parent="1">
          <mxGeometry x="310" y="270" width="60" height="30" as="geometry" />
        </mxCell>
      </root>
    </mxGraphModel>
  </diagram>
</mxfile>
